<svg width="38" height="31" viewBox="0 0 38 31" fill="none" xmlns="http://www.w3.org/2000/svg">
<path d="M32.0027 1.36379C30.6679 0.107605 30.4953 0 30.2403 0C30.1422 0 30.0218 0.0398185 29.9085 0.155956C29.7952 0.272093 19.3001 11.0392 19.3001 11.0392C19.2063 11.1331 19.0859 11.1866 18.9655 11.1866C18.8451 11.1866 18.7247 11.1331 18.6308 11.0392C18.6308 11.0392 8.13579 0.272093 8.02249 0.155956C7.9092 0.0398185 7.78832 0 7.69067 0C7.43564 0 7.26309 0.107605 5.92822 1.36379C3.48128 3.66568 0 9.19524 0 15.0253C0 16.6935 -0.00094754 26.1513 10.2623 30.8551C10.7311 31.0694 11.1928 30.5631 10.8245 30.1858C9.15922 28.4778 7.85231 25.3104 7.85231 22.5809C7.85231 20.2781 8.54867 18.1222 9.7399 16.328C9.91387 16.0199 10.1817 15.9663 10.4898 16.2744C10.4898 16.2744 18.4862 24.3637 18.6204 24.4993C18.7545 24.6354 18.8555 24.6557 18.965 24.6557C19.0745 24.6557 19.1755 24.6349 19.3096 24.4993C19.4438 24.3633 27.4402 16.2744 27.4402 16.2744C27.7483 15.9663 28.0161 16.0199 28.1901 16.328C29.3818 18.1222 30.0777 20.2776 30.0777 22.5809C30.0777 25.3109 28.7708 28.4778 27.1055 30.1858C26.7372 30.5636 27.1994 31.0694 27.6677 30.8551C37.931 26.1513 37.93 16.693 37.93 15.0253C37.93 9.19524 34.4487 3.66615 32.0023 1.36379H32.0027Z" fill="#0059FF"/>
</svg>
