<svg width="19" height="19" viewBox="0 0 19 19" fill="none" xmlns="http://www.w3.org/2000/svg">
<path d="M7.79167 11.9167C8.95278 11.9167 9.93056 11.5194 10.725 10.725C11.5194 9.93056 11.9167 8.95278 11.9167 7.79167C11.9167 6.63056 11.5194 5.65278 10.725 4.85833C9.93056 4.06389 8.95278 3.66667 7.79167 3.66667C6.63056 3.66667 5.65278 4.06389 4.85833 4.85833C4.06389 5.65278 3.66667 6.63056 3.66667 7.79167C3.66667 8.95278 4.06389 9.93056 4.85833 10.725C5.65278 11.5194 6.63056 11.9167 7.79167 11.9167ZM7.79167 15.5833C5.62222 15.5833 3.78125 14.8271 2.26875 13.3146C0.756251 11.8021 0 9.96111 0 7.79167C0 5.62222 0.756251 3.78125 2.26875 2.26875C3.78125 0.756249 5.62222 -1.90735e-06 7.79167 -1.90735e-06C9.96111 -1.90735e-06 11.8021 0.756249 13.3146 2.26875C14.8271 3.78125 15.5833 5.62222 15.5833 7.79167C15.5833 8.49444 15.484 9.18958 15.2854 9.87708C15.0868 10.5646 14.7889 11.2139 14.3917 11.825L17.9667 15.4C18.3333 15.7667 18.509 16.1944 18.4937 16.6833C18.4785 17.1722 18.2875 17.6 17.9208 17.9667C17.5542 18.3028 17.1264 18.4785 16.6375 18.4938C16.1486 18.509 15.7208 18.3333 15.3542 17.9667L11.825 14.4375C11.2139 14.8347 10.5646 15.125 9.87708 15.3083C9.18958 15.4917 8.49444 15.5833 7.79167 15.5833Z" fill="white"/>
</svg>
